<svg width="36" height="36" viewBox="0 0 36 36" fill="none" xmlns="http://www.w3.org/2000/svg">
<rect width="36" height="36" fill="#BFBFBF"/>
<g id="_ver1_&#233;&#166;&#150;&#233;&#160;&#129; / &#229;&#139;&#149;&#230;&#133;&#139;&#231;&#137;&#134;" clip-path="url(#clip0_0_1)">
<g id="_ver1_&#229;&#128;&#139;&#228;&#186;&#186;&#229;&#139;&#149;&#230;&#133;&#139;&#231;&#137;&#134;">
<rect width="1440" height="1631" transform="translate(-1213 -38)" fill="#F3F3F3"/>
</g>
<g id="Nav">
<rect id="Rectangle 25" x="-1213" y="-38" width="1440" height="100" fill="white"/>
<g id="Nav_2">
<g id="Group 81">
<g id="Group 79">
<circle id="Ellipse 14" cx="18" cy="18" r="18" fill="#A3C3D3"/>
<path id="Vector" d="M13.5209 26.1521C14.5571 26.1521 16.2607 26.0569 18.5647 25.6325C18.1662 26.7159 17.1277 27.4923 15.9079 27.4923C14.8938 27.4923 14.0054 26.9552 13.5041 26.1521H13.5209ZM26.5312 20.2413C26.7193 21.2104 26.0397 22.0675 24.5098 22.7906C23.6717 23.186 21.8081 23.9388 18.73 24.5376C16.3559 24.9986 14.6165 25.1045 13.5216 25.1045C13.1963 25.1045 12.9273 25.0954 12.7155 25.0832C11.0271 24.9864 10.0748 24.4454 9.88658 23.4763C9.60086 22.0081 10.0527 21.4413 10.8016 20.5026L10.999 20.255C11.5041 19.6142 11.7014 18.9849 11.3784 17.3247C10.6553 13.6066 12.33 11.0656 15.9719 10.354C19.6153 9.65078 22.1205 11.3773 22.8435 15.0961C23.1658 16.7563 23.5849 17.2653 24.2934 17.6698V17.6706L24.5692 17.8268C25.6146 18.4165 26.2454 18.7723 26.5312 20.2413Z" fill="white"/>
</g>
</g>
</g>
</g>
</g>
<defs>
<clipPath id="clip0_0_1">
<rect width="1440" height="1631" fill="white" transform="translate(-1213 -38)"/>
</clipPath>
</defs>
</svg>
